# xmcd
#
# Track frame offsets:
#	150
#	12952
#	24572
#	29955
#	44982
#	54895
#	64442
#
# Disc length: 1035 seconds
#
# Revision: 1
# Processed by: cddbd v1.5.1PL2 Copyright (c) Steve Scherf et al.
# Submitted via: audiograbber 1.83.01
#
DISCID=65040907
DTITLE=Various Artist - House of Blues Hotel (Promotional CD from Soundies SCD
DTITLE=)
DYEAR=1900
DGENRE=R&B
TTITLE0=Count Basie - Rockin' the Blues
TTITLE1=George Barnes Octet - Chicago
TTITLE2=Eddie Condon - Jam Session Blues
TTITLE3=Red Norvo - Blue Skies
TTITLE4=Count Basie - Basie Boogie
TTITLE5=George Barnes Octet - South Sidw Blues
TTITLE6=Eddie Condon - Black and Blue
EXTD=free CD from House Of Blues Hotel\nselections from SCD-4118 and SCD4122 an
EXTD=d SCD4127 and SCD4128
EXTT0=
EXTT1=
EXTT2=
EXTT3=
EXTT4=
EXTT5=
EXTT6=
PLAYORDER=
